<svg width="32" height="32" viewBox="0 0 32 32" fill="none" xmlns="http://www.w3.org/2000/svg">
<path d="M17.6667 14C18.4268 13.9999 19.1587 14.2884 19.7143 14.8072C20.2699 15.326 20.608 16.0363 20.66 16.7947L20.6667 17V26.3333C20.6668 27.0935 20.3783 27.8254 19.8595 28.381C19.3407 28.9366 18.6304 29.2746 17.872 29.3267L17.6667 29.3333H5.66667C4.9065 29.3334 4.17464 29.0449 3.61899 28.5262C3.06334 28.0075 2.72536 27.2971 2.67333 26.5387L2.66667 26.3333V17C2.66657 16.2398 2.95506 15.508 3.47383 14.9523C3.9926 14.3966 4.70295 14.0587 5.46133 14.0067L5.66667 14H17.6667ZM28.3333 14C28.575 14 28.8085 14.0875 28.9906 14.2464C29.1727 14.4053 29.2911 14.6246 29.324 14.864L29.3333 15V26.3333C29.3334 27.0935 29.0449 27.8254 28.5262 28.381C28.0075 28.9366 27.2971 29.2746 26.5387 29.3267L26.3333 29.3333H23.6667C23.4133 29.3333 23.1694 29.237 22.9843 29.064C22.7991 28.8911 22.6866 28.6543 22.6693 28.4015C22.652 28.1487 22.7314 27.8988 22.8912 27.7023C23.051 27.5058 23.2797 27.3772 23.5307 27.3427L23.6667 27.3333H26.3333C26.575 27.3333 26.8085 27.2458 26.9906 27.087C27.1727 26.9282 27.2911 26.7087 27.324 26.4693L27.3333 26.3333V15C27.3333 14.7348 27.4387 14.4804 27.6262 14.2929C27.8137 14.1054 28.0681 14 28.3333 14ZM17.6667 16H5.66667C5.42502 16 5.19154 16.0875 5.00943 16.2464C4.82731 16.4052 4.70886 16.6246 4.676 16.864L4.66667 17V26.3333C4.66667 26.84 5.04267 27.2587 5.53067 27.324L5.66667 27.3333H17.6667C17.9083 27.3333 18.1418 27.2458 18.3239 27.087C18.506 26.9282 18.6245 26.7087 18.6573 26.4693L18.6667 26.3333V17C18.6667 16.7348 18.5613 16.4804 18.3738 16.2929C18.1863 16.1054 17.9319 16 17.6667 16ZM28.3333 2.66667C28.4838 2.66666 28.6323 2.70038 28.768 2.76533L28.8253 2.796C28.8633 2.81759 28.8998 2.84164 28.9347 2.868L29.0413 2.96L29.1093 3.036L29.1227 3.05467L29.1693 3.11867C29.2512 3.2431 29.3041 3.38437 29.324 3.532L29.3333 3.66667V10.3333C29.3333 10.5867 29.237 10.8306 29.064 11.0157C28.891 11.2008 28.6543 11.3134 28.4015 11.3307C28.1487 11.348 27.8988 11.2686 27.7023 11.1088C27.5057 10.9489 27.3772 10.7203 27.3427 10.4693L27.3333 10.3333V6.08L21.3733 12.04C21.1947 12.2173 20.9557 12.3207 20.7042 12.3295C20.4527 12.3384 20.207 12.2521 20.0163 12.0878C19.8256 11.9235 19.7039 11.6934 19.6754 11.4433C19.6469 11.1932 19.7138 10.9416 19.8627 10.7387L19.96 10.6267L25.9173 4.66667H21.6667C21.425 4.66666 21.1915 4.57914 21.0094 4.42031C20.8273 4.26148 20.7089 4.04207 20.676 3.80267L20.6667 3.66667C20.6667 3.42502 20.7542 3.19154 20.913 3.00943C21.0718 2.82732 21.2913 2.70886 21.5307 2.676L21.6667 2.66667H28.3333ZM17 2.66667C17.2534 2.66674 17.4973 2.76299 17.6824 2.93596C17.8675 3.10893 17.9801 3.34573 17.9974 3.59851C18.0147 3.85129 17.9353 4.10119 17.7754 4.29773C17.6155 4.49427 17.387 4.6228 17.136 4.65733L17 4.66667H5.66667C5.42502 4.66668 5.19154 4.75419 5.00943 4.91302C4.82732 5.07185 4.70886 5.29126 4.676 5.53067L4.66667 5.66667V11C4.66659 11.2534 4.57034 11.4973 4.39737 11.6824C4.2244 11.8675 3.9876 11.9801 3.73483 11.9974C3.48205 12.0146 3.23214 11.9353 3.0356 11.7754C2.83906 11.6155 2.71053 11.387 2.676 11.136L2.66667 11V5.66667C2.66657 4.9065 2.95506 4.17464 3.47383 3.61899C3.9926 3.06334 4.70295 2.72536 5.46133 2.67333L5.66667 2.66667H17Z" fill="#9CCDB7"/>
<g clip-path="url(#clip0_3_3)">
<path d="M10.4594 25.2969L11.5 23.5109L12.5406 25.2969L16 25.2969L11.5 17.5625L7 25.2969L10.4594 25.2969Z" fill="#42B883"/>
<path d="M10.4594 25.2969L11.5 23.5109L12.5406 25.2969H14.2L11.5 20.6562L8.8 25.2969H10.4594Z" fill="#35495E"/>
</g>
<defs>
<clipPath id="clip0_3_3">
<rect width="9" height="9" fill="white" transform="matrix(-1 0 0 -1 16 26)"/>
</clipPath>
</defs>
</svg>
